<svg id="Calque_1" data-name="Calque 1" xmlns="http://www.w3.org/2000/svg" viewBox="0 0 274.629 244.403"><defs><style>.cls-1{fill:#0b0700;}.cls-2{fill:#ffda40;}.cls-2,.cls-4{fill-rule:evenodd;}.cls-3{fill:#fff;}.cls-4{fill:#fbbf43;}.cls-5{fill:#010101;}</style></defs><path class="cls-1" d="M50.4013,189.8797c-2.667-.415-4.28-1.07-4.28-2.971,0-1.55,1.197-2.508,3.146-2.508a3.05581,3.05581,0,0,1,3.403,2.795h7.027c-.303-5.83-4.169-8.976-10.542-8.976-6.66,0-10.765,3.211-10.765,8.689,0,6.07,5.654,8.274,9.935,8.977,2.619.478,4.408,1.134,4.408,3.098,0,1.901-1.437,2.748-3.514,2.748a3.36667,3.36667,0,0,1-3.69-3.227h-7.618c.415,5.958,4.344,9.472,11.244,9.472s11.373-3.338,11.373-9.057c0-6.484-5.606-8.273-10.127-9.04"/><path class="cls-1" d="M74.089,166.129a4.43453,4.43453,0,1,0,4.584,4.471,4.32174,4.32174,0,0,0-4.584-4.471M70.16,207.433h7.858V178.746H70.16Z"/><path class="cls-1" d="M106.4814,200.5331a10.372,10.372,0,0,1-3.402.543c-3.323,0-4.217-1.134-4.217-4.888v-10.957h7.667v-6.484h-7.667v-8.147h-6.916l-.831,8.147h-4.52v5.893l4.408.48v11.309c0,7.619,3.099,11.419,10.239,11.419a20.33806,20.33806,0,0,0,6.421-1.07Z"/><path class="cls-1" d="M130.52008,178.2197a12.94693,12.94693,0,0,0-6.006,1.309v-13.751h-7.858v39.931a30.72271,30.72271,0,0,0,11.132,2.268c8.977,0,14.392-5.782,14.392-14.95,0-9.105-4.457-14.807-11.66-14.807m-2.444,23.08a11.27484,11.27484,0,0,1-3.562-.526v-14.999a9.00258,9.00258,0,0,1,3.866-.895c4.041,0,6.005,2.796,6.005,8.099,0,5.526-2.14,8.321-6.309,8.321"/><path class="cls-1" d="M174.02879,198.0898v-8.625c0-7.508-4.28-11.245-11.835-11.245a24.59158,24.59158,0,0,0-10.191,2.38l1.678,6.133a18.458,18.458,0,0,1,7.315-1.741c3.577,0,5.175,1.31,5.175,4.584v1.134a19.05443,19.05443,0,0,0-5.654-.83c-6.006,0-10.111,3.21-10.111,8.929,0,5.717,3.69,9.168,9.344,9.168,3.562,0,6.485-1.373,7.906-3.929,1.134,3.561,5.192,4.408,9.344,3.386v-6.358c-2.204.176-2.971-.367-2.971-2.986m-7.73-1.422c0,2.971-1.854,5-4.712,5-2.013,0-3.45-1.135-3.45-3.211,0-2.38,1.613-3.514,3.993-3.514a13.73124,13.73124,0,0,1,4.169.655Z"/><path class="cls-1" d="M202.6523,196.492c-.591,3.083-2.141,4.808-4.872,4.808-3.514,0-5.479-3.21-5.479-8.274,0-5.047,1.965-8.146,5.415-8.146,2.748,0,4.409,1.725,4.936,4.344h7.203c-.766-6.788-5.238-11.004-12.075-11.004-7.97,0-13.273,5.478-13.273,14.806,0,8.992,5.063,14.95,13.209,14.95,6.901,0,11.613-4.169,12.332-11.484Z"/><path class="cls-1" d="M237.2968,193.3299c3.402-2.684,5.063-7.491,4.936-14.583h-7.62c0,7.379-1.724,10.175-6.181,10.175h-1.134v-23.145h-7.858v41.657h7.858v-11.548h1.134c.591,0,1.246,0,1.789-.048l5.287,11.596h8.401v-.24Z"/><path class="cls-2" d="M162.6161,107.5936s-22.331-20.99-25.01-71.458H77.7591s1.908,58.397,33.247,84.158a29.749,29.749,0,0,0,24.113,6.535Z"/><path class="cls-3" d="M175.0351,125.2186a45.22244,45.22244,0,0,1-28.654-9.626c-28.244-22.134-28.57-74.824-28.57-77.044h11.31c0,.488.336,49.436,24.252,68.153,9.192,7.194,20.561,8.991,34.746,5.498l2.704,10.979a66.037,66.037,0,0,1-15.788,2.04"/><path class="cls-3" d="M142.4995,129.6795l3.306,4.983a48.16827,48.16827,0,0,1-8.05-3.465l-1.006-1.534h-1.598a41.44087,41.44087,0,0,1-3.513-2.412h-.016c-.017,0-.017,0-.032-.015-.049-.033-.112-.08-.16-.113-.958-.718-1.917-1.469-2.843-2.283-8.705-7.396-16.18-18.145-22.234-32.041-.719-1.63-1.406-3.291-2.077-5-.031-.064-.048-.143-.079-.207-1.901-4.872-3.498-9.76-4.856-14.472-1.405-4.903-2.524-9.615-3.434-13.88a197.124,197.124,0,0,1-3.306-20.7v-.016h11.436v.016c.096,1.022,3.45,34.325,17.522,59.482a77.6451,77.6451,0,0,0,6.756,10.222,49.01894,49.01894,0,0,0,14.232,12.634,5.63658,5.63658,0,0,0,.607.336c.591.335,1.182.639,1.789.926.847.399,1.693.767,2.571,1.086a32.21729,32.21729,0,0,0,5.671,1.693,37.88839,37.88839,0,0,0,9.264.831l.048,1.597.063,2.396Z"/><path class="cls-1" d="M242.3759,148.2401a2.39316,2.39316,0,0,1-2.396,2.396H40.94591a2.396,2.396,0,1,1,0-4.792h199.034a2.39253,2.39253,0,0,1,2.396,2.396"/><path class="cls-4" d="M216.04581,108.1322s1.34,14.022-22.331,19.293l-64.952-.176s18.504.981,27.435-19.117Z"/><path class="cls-1" d="M121.5595,98.02229a77.57562,77.57562,0,0,0,6.756,10.222Zm96.873,9.887a2.39312,2.39312,0,0,0-2.38-2.173h-32.36l-43.78-70.263a2.3882,2.3882,0,0,0-2.301-1.725H77.7625a2.38957,2.38957,0,0,0-1.725.719,2.47335,2.47335,0,0,0-.671,1.757,175.76554,175.76554,0,0,0,4.936,32.903c2.491,10.063,6.549,22.33,13.065,33.495l-31.13,43.221-.719.991a2.40447,2.40447,0,0,0,.559,3.354,2.355,2.355,0,0,0,1.39.447,2.40566,2.40566,0,0,0,1.948-.99l2.731-3.802,27.953-38.797a68.06608,68.06608,0,0,0,13.384,15.095,32.71991,32.71991,0,0,0,16.5,7.235l-13.528,16.467-.719.879a2.38853,2.38853,0,1,0,3.689,3.035l3.227-3.914,12.682-15.413a2.2453,2.2453,0,0,0,.415-.766h5l1.006,1.533,9.696,14.646,2.46,3.722a2.38014,2.38014,0,0,0,1.996,1.07,2.33527,2.33527,0,0,0,1.309-.399,2.38315,2.38315,0,0,0,.688-3.322l-.703-1.071-7.396-11.18-3.306-4.984,20.061.065,30.492.079a2.13684,2.13684,0,0,0,.176.336l9.743,15.684,2.268,3.658a2.41362,2.41362,0,0,0,2.045,1.134,2.30358,2.30358,0,0,0,1.261-.367,2.38355,2.38355,0,0,0,.767-3.29l-.702-1.135-10.59-17.058c21.53-6.277,20.477-20.253,20.412-20.876m-19.135,15.429c-.191.064-.399.128-.606.208a1.16771,1.16771,0,0,1-.208.08,8.04329,8.04329,0,0,1-2.093,1.597l-7.203-.207-4.217-.016h-4.968l-8.864-.033h-1.23l-16.723-.048-8.099-.015c.799-.495,1.614-1.054,2.428-1.677a31.72844,31.72844,0,0,0,4.329-3.962,35.70937,35.70937,0,0,0,5.494-7.986c.128-.239.256-.495.384-.751h55.712c-.703,3.147-3.466,8.993-14.136,12.81m-86.763-4.887a64.57506,64.57506,0,0,1-13.433-15.59l7.252-10.062,3.13-4.345,23.816,36.003a23.85816,23.85816,0,0,1-3.403.398h-1.086a1.11055,1.11055,0,0,1-.223-.015,27.89076,27.89076,0,0,1-16.053-6.389m43.67-12.715a2.4017,2.4017,0,0,0-2.189,1.422v.016a32.7464,32.7464,0,0,1-6.245,9.456,26.17264,26.17264,0,0,1-9.648,6.437l-9.807-14.823-6.756-10.222-25.652-38.782-13.689-20.7h53.141c2.508,38.302,16.068,59.338,22.393,67.196Zm-56.863-32.615,7.316,11.052-2.46,3.419-7.763,10.781c-10.238-18.592-14.088-40.826-15.494-53.077Zm78.697,32.615h-13.896a52.32479,52.32479,0,0,1-6.149-7.874l8.608-10.478Zm-14.12-22.649-8.577,10.462c-.735-1.261-1.469-2.635-2.22-4.105-4.521-8.896-9.999-23.255-12.283-43.413Zm-42.359,14.935a77.57562,77.57562,0,0,0,6.756,10.222Z"/><path class="cls-3" d="M171.1376,124.9632c6.908-4.442,9.019-13.669,9.23-14.438h-10.751c-.036.131-3.596,9.617-12.068,14.398Z"/><path class="cls-5" d="M198.4794,123.6219a8.04585,8.04585,0,0,1-2.092,1.597l-7.204-.207,4.265.015a50.96894,50.96894,0,0,0,5.031-1.405"/><path class="cls-3" d="M206.1786,110.52431c-1.917,7.22-4.876,10.883-6.889,12.816-1.517.511-4.005,1.272-5.841,1.687l-4.265-.016-4.216-.01c.526-.208,8.496-4.031,11.34-14.477Z"/></svg>